<svg id="visual" viewBox="0 0 900 600" width="900" height="600" xmlns="http://www.w3.org/2000/svg" xmlns:xlink="http://www.w3.org/1999/xlink" version="1.1"><rect x="0" y="0" width="900" height="600" fill="#001220"></rect><path d="M0 232L16.7 234.3C33.3 236.7 66.7 241.3 100 233.5C133.3 225.7 166.7 205.3 200 202.5C233.3 199.7 266.7 214.3 300 223.2C333.3 232 366.7 235 400 228.8C433.3 222.7 466.7 207.3 500 211.5C533.3 215.7 566.7 239.3 600 242.8C633.3 246.3 666.7 229.7 700 220.2C733.3 210.7 766.7 208.3 800 209.5C833.3 210.7 866.7 215.3 883.3 217.7L900 220L900 601L883.3 601C866.7 601 833.3 601 800 601C766.7 601 733.3 601 700 601C666.7 601 633.3 601 600 601C566.7 601 533.3 601 500 601C466.7 601 433.3 601 400 601C366.7 601 333.3 601 300 601C266.7 601 233.3 601 200 601C166.7 601 133.3 601 100 601C66.7 601 33.3 601 16.7 601L0 601Z" fill="#0efff0"></path><path d="M0 277L16.7 278C33.3 279 66.7 281 100 274.5C133.3 268 166.7 253 200 256C233.3 259 266.7 280 300 291C333.3 302 366.7 303 400 294.5C433.3 286 466.7 268 500 268.8C533.3 269.7 566.7 289.3 600 295.3C633.3 301.3 666.7 293.7 700 284.3C733.3 275 766.7 264 800 266.7C833.3 269.3 866.7 285.7 883.3 293.8L900 302L900 601L883.3 601C866.7 601 833.3 601 800 601C766.7 601 733.3 601 700 601C666.7 601 633.3 601 600 601C566.7 601 533.3 601 500 601C466.7 601 433.3 601 400 601C366.7 601 333.3 601 300 601C266.7 601 233.3 601 200 601C166.7 601 133.3 601 100 601C66.7 601 33.3 601 16.7 601L0 601Z" fill="#00dcd4"></path><path d="M0 311L16.7 308.7C33.3 306.3 66.7 301.7 100 307.5C133.3 313.3 166.7 329.7 200 338.7C233.3 347.7 266.7 349.3 300 341.5C333.3 333.7 366.7 316.3 400 315C433.3 313.7 466.7 328.3 500 328C533.3 327.7 566.7 312.3 600 310.2C633.3 308 666.7 319 700 322.3C733.3 325.7 766.7 321.3 800 322.5C833.3 323.7 866.7 330.3 883.3 333.7L900 337L900 601L883.3 601C866.7 601 833.3 601 800 601C766.7 601 733.3 601 700 601C666.7 601 633.3 601 600 601C566.7 601 533.3 601 500 601C466.7 601 433.3 601 400 601C366.7 601 333.3 601 300 601C266.7 601 233.3 601 200 601C166.7 601 133.3 601 100 601C66.7 601 33.3 601 16.7 601L0 601Z" fill="#00bbb7"></path><path d="M0 388L16.7 379.8C33.3 371.7 66.7 355.3 100 348.2C133.3 341 166.7 343 200 350.2C233.3 357.3 266.7 369.7 300 371.5C333.3 373.3 366.7 364.7 400 357C433.3 349.3 466.7 342.7 500 348C533.3 353.3 566.7 370.7 600 375.3C633.3 380 666.7 372 700 365.5C733.3 359 766.7 354 800 348.7C833.3 343.3 866.7 337.7 883.3 334.8L900 332L900 601L883.3 601C866.7 601 833.3 601 800 601C766.7 601 733.3 601 700 601C666.7 601 633.3 601 600 601C566.7 601 533.3 601 500 601C466.7 601 433.3 601 400 601C366.7 601 333.3 601 300 601C266.7 601 233.3 601 200 601C166.7 601 133.3 601 100 601C66.7 601 33.3 601 16.7 601L0 601Z" fill="#009a9a"></path><path d="M0 411L16.7 410.2C33.3 409.3 66.7 407.7 100 402.5C133.3 397.3 166.7 388.7 200 390.5C233.3 392.3 266.7 404.7 300 409.7C333.3 414.7 366.7 412.3 400 412C433.3 411.7 466.7 413.3 500 415.7C533.3 418 566.7 421 600 420C633.3 419 666.7 414 700 410C733.3 406 766.7 403 800 404.2C833.3 405.3 866.7 410.7 883.3 413.3L900 416L900 601L883.3 601C866.7 601 833.3 601 800 601C766.7 601 733.3 601 700 601C666.7 601 633.3 601 600 601C566.7 601 533.3 601 500 601C466.7 601 433.3 601 400 601C366.7 601 333.3 601 300 601C266.7 601 233.3 601 200 601C166.7 601 133.3 601 100 601C66.7 601 33.3 601 16.7 601L0 601Z" fill="#007a7c"></path><path d="M0 446L16.7 447.5C33.3 449 66.7 452 100 455.3C133.3 458.7 166.7 462.3 200 464C233.3 465.7 266.7 465.3 300 461.7C333.3 458 366.7 451 400 448C433.3 445 466.7 446 500 443.3C533.3 440.7 566.7 434.3 600 433.7C633.3 433 666.7 438 700 441.8C733.3 445.7 766.7 448.3 800 451.3C833.3 454.3 866.7 457.7 883.3 459.3L900 461L900 601L883.3 601C866.7 601 833.3 601 800 601C766.7 601 733.3 601 700 601C666.7 601 633.3 601 600 601C566.7 601 533.3 601 500 601C466.7 601 433.3 601 400 601C366.7 601 333.3 601 300 601C266.7 601 233.3 601 200 601C166.7 601 133.3 601 100 601C66.7 601 33.3 601 16.7 601L0 601Z" fill="#015c5f"></path><path d="M0 473L16.7 473.8C33.3 474.7 66.7 476.3 100 477.3C133.3 478.3 166.7 478.7 200 479.2C233.3 479.7 266.7 480.3 300 481.7C333.3 483 366.7 485 400 486.3C433.3 487.7 466.7 488.3 500 485.7C533.3 483 566.7 477 600 478.7C633.3 480.3 666.7 489.7 700 491.8C733.3 494 766.7 489 800 489.2C833.3 489.3 866.7 494.7 883.3 497.3L900 500L900 601L883.3 601C866.7 601 833.3 601 800 601C766.7 601 733.3 601 700 601C666.7 601 633.3 601 600 601C566.7 601 533.3 601 500 601C466.7 601 433.3 601 400 601C366.7 601 333.3 601 300 601C266.7 601 233.3 601 200 601C166.7 601 133.3 601 100 601C66.7 601 33.3 601 16.7 601L0 601Z" fill="#034043"></path><path d="M0 529L16.7 530.2C33.3 531.3 66.7 533.7 100 532.5C133.3 531.3 166.7 526.7 200 524.2C233.3 521.7 266.7 521.3 300 522.3C333.3 523.3 366.7 525.7 400 525.7C433.3 525.7 466.7 523.3 500 522.7C533.3 522 566.7 523 600 526.2C633.3 529.3 666.7 534.7 700 534.2C733.3 533.7 766.7 527.3 800 526.2C833.3 525 866.7 529 883.3 531L900 533L900 601L883.3 601C866.7 601 833.3 601 800 601C766.7 601 733.3 601 700 601C666.7 601 633.3 601 600 601C566.7 601 533.3 601 500 601C466.7 601 433.3 601 400 601C366.7 601 333.3 601 300 601C266.7 601 233.3 601 200 601C166.7 601 133.3 601 100 601C66.7 601 33.3 601 16.7 601L0 601Z" fill="#032528"></path></svg>