<?xml version="1.0" standalone="no"?>
<!DOCTYPE svg PUBLIC "-//W3C//DTD SVG 20010904//EN"
 "http://www.w3.org/TR/2001/REC-SVG-20010904/DTD/svg10.dtd">
<svg version="1.0" xmlns="http://www.w3.org/2000/svg"
 width="500.000000pt" height="500.000000pt" viewBox="0 0 500.000000 500.000000"
 preserveAspectRatio="xMidYMid meet">

<g transform="translate(0.000000,500.000000) scale(0.100000,-0.100000)"
fill="#000000" stroke="none">
<path d="M2030 920 l0 -320 55 0 c52 0 55 1 55 25 0 31 5 31 41 0 81 -67 207
-33 259 70 21 42 25 63 24 135 -1 87 -15 133 -52 176 -58 67 -189 72 -241 10
-8 -9 -17 -16 -22 -16 -5 0 -9 53 -9 118 l0 118 -55 2 -55 1 0 -319z m272 29
c59 -32 64 -203 5 -244 -36 -25 -94 -19 -127 13 -50 50 -50 166 0 220 23 24
86 30 122 11z"/>
<path d="M2937 1222 c-22 -25 -21 -75 1 -95 25 -22 75 -21 95 1 25 27 22 78
-5 96 -30 21 -71 20 -91 -2z"/>
<path d="M4114 1225 c-3 -7 -4 -133 -2 -281 3 -298 6 -311 66 -340 30 -14 106
-16 116 -2 2 1 1 22 -2 45 -3 37 -7 42 -30 45 l-27 3 -5 270 -5 270 -53 1
c-35 1 -55 -3 -58 -11z"/>
<path d="M710 1186 c0 -8 29 -141 65 -296 36 -155 65 -283 65 -286 0 -2 30 -4
68 -4 l67 0 49 195 c27 107 52 193 55 189 3 -3 28 -89 56 -192 l51 -187 66 -3
c57 -2 67 0 72 15 4 14 76 326 125 546 l9 37 -57 0 -57 0 -44 -202 c-23 -112
-46 -207 -51 -212 -4 -5 -11 4 -15 20 -4 16 -28 110 -54 209 l-46 180 -52 3
c-59 3 -45 34 -113 -240 -24 -98 -47 -178 -51 -178 -3 0 -12 26 -18 58 -7 31
-26 125 -44 207 l-32 150 -57 3 c-45 2 -57 0 -57 -12z"/>
<path d="M2655 1153 c-69 -14 -65 -11 -65 -58 0 -45 0 -45 -36 -45 l-35 0 3
-42 c3 -40 5 -43 36 -46 l32 -3 0 -112 c0 -62 5 -130 10 -152 18 -81 110 -123
202 -93 46 14 50 25 29 81 -9 24 -12 25 -41 15 -23 -7 -38 -7 -56 1 -24 10
-24 13 -24 136 l0 125 60 0 c41 0 60 4 61 13 0 6 2 27 3 45 l2 32 -63 0 -63 0
0 55 c0 58 -2 60 -55 48z"/>
<path d="M1647 1046 c-100 -37 -153 -155 -127 -280 24 -116 94 -170 220 -171
85 0 125 17 167 72 l24 31 -41 25 -41 24 -29 -28 c-51 -52 -156 -33 -179 32
-6 18 -11 36 -11 40 0 5 68 9 151 9 l152 0 -5 74 c-6 84 -28 130 -79 160 -42
25 -151 31 -202 12z m152 -102 c12 -15 21 -37 21 -50 0 -23 -2 -24 -88 -24
-49 0 -91 3 -95 6 -10 10 14 64 36 79 12 8 40 15 63 15 34 0 47 -5 63 -26z"/>
<path d="M3285 1048 c-88 -31 -135 -108 -135 -221 0 -134 65 -216 186 -232 89
-12 174 27 209 95 14 28 14 29 -19 49 -18 12 -37 21 -40 21 -4 0 -22 -16 -40
-35 -84 -89 -203 -5 -182 128 14 84 43 111 116 109 26 -1 43 -10 63 -32 l28
-31 39 28 c22 15 40 31 40 34 0 17 -48 64 -84 80 -45 21 -133 24 -181 7z"/>
<path d="M3719 1046 c-37 -13 -99 -53 -99 -63 0 -12 42 -73 50 -73 5 0 12 5
15 10 12 19 84 50 115 50 41 0 70 -16 70 -40 0 -30 -26 -48 -88 -60 -76 -14
-137 -43 -158 -75 -12 -19 -15 -40 -12 -82 4 -47 10 -61 36 -84 57 -51 155
-50 201 0 l26 28 27 -29 c24 -26 32 -29 80 -26 42 2 54 7 56 21 7 34 -7 66
-31 69 -21 3 -22 7 -27 143 -6 158 -15 186 -75 211 -42 17 -138 18 -186 0z
m151 -271 c0 -59 -32 -95 -84 -95 -84 0 -90 98 -8 116 15 3 38 10 52 14 39 13
40 13 40 -35z"/>
<path d="M2930 825 l0 -225 55 0 55 0 0 225 0 225 -55 0 -55 0 0 -225z"/>
</g>
</svg>
