<svg id="visual" viewBox="0 0 900 600" width="900" height="600" xmlns="http://www.w3.org/2000/svg" xmlns:xlink="http://www.w3.org/1999/xlink" version="1.1"><path d="M0 127L13.7 128C27.3 129 54.7 131 82 130C109.3 129 136.7 125 163.8 125C191 125 218 129 245.2 122C272.3 115 299.7 97 327 92C354.3 87 381.7 95 409 105C436.3 115 463.7 127 491 127C518.3 127 545.7 115 573 112C600.3 109 627.7 115 654.8 122C682 129 709 137 736.2 140C763.3 143 790.7 141 818 137C845.3 133 872.7 127 886.3 124L900 121L900 0L886.3 0C872.7 0 845.3 0 818 0C790.7 0 763.3 0 736.2 0C709 0 682 0 654.8 0C627.7 0 600.3 0 573 0C545.7 0 518.3 0 491 0C463.7 0 436.3 0 409 0C381.7 0 354.3 0 327 0C299.7 0 272.3 0 245.2 0C218 0 191 0 163.8 0C136.7 0 109.3 0 82 0C54.7 0 27.3 0 13.7 0L0 0Z" fill="#a067ff"></path><path d="M0 259L13.7 253C27.3 247 54.7 235 82 228C109.3 221 136.7 219 163.8 223C191 227 218 237 245.2 231C272.3 225 299.7 203 327 189C354.3 175 381.7 169 409 175C436.3 181 463.7 199 491 200C518.3 201 545.7 185 573 179C600.3 173 627.7 177 654.8 194C682 211 709 241 736.2 250C763.3 259 790.7 247 818 241C845.3 235 872.7 235 886.3 235L900 235L900 119L886.3 122C872.7 125 845.3 131 818 135C790.7 139 763.3 141 736.2 138C709 135 682 127 654.8 120C627.7 113 600.3 107 573 110C545.7 113 518.3 125 491 125C463.7 125 436.3 113 409 103C381.7 93 354.3 85 327 90C299.7 95 272.3 113 245.2 120C218 127 191 123 163.8 123C136.7 123 109.3 127 82 128C54.7 129 27.3 127 13.7 126L0 125Z" fill="#8642ff"></path><path d="M0 451L13.7 430C27.3 409 54.7 367 82 353C109.3 339 136.7 353 163.8 354C191 355 218 343 245.2 346C272.3 349 299.7 367 327 369C354.3 371 381.7 357 409 345C436.3 333 463.7 323 491 328C518.3 333 545.7 353 573 371C600.3 389 627.7 405 654.8 404C682 403 709 385 736.2 368C763.3 351 790.7 335 818 331C845.3 327 872.7 335 886.3 339L900 343L900 233L886.3 233C872.7 233 845.3 233 818 239C790.7 245 763.3 257 736.2 248C709 239 682 209 654.8 192C627.7 175 600.3 171 573 177C545.7 183 518.3 199 491 198C463.7 197 436.3 179 409 173C381.7 167 354.3 173 327 187C299.7 201 272.3 223 245.2 229C218 235 191 225 163.8 221C136.7 217 109.3 219 82 226C54.7 233 27.3 245 13.7 251L0 257Z" fill="#6600ff"></path><path d="M0 565L13.7 559C27.3 553 54.7 541 82 531C109.3 521 136.7 513 163.8 508C191 503 218 501 245.2 510C272.3 519 299.7 539 327 542C354.3 545 381.7 531 409 530C436.3 529 463.7 541 491 546C518.3 551 545.7 549 573 544C600.3 539 627.7 531 654.8 530C682 529 709 535 736.2 532C763.3 529 790.7 517 818 515C845.3 513 872.7 521 886.3 525L900 529L900 341L886.3 337C872.7 333 845.3 325 818 329C790.7 333 763.3 349 736.2 366C709 383 682 401 654.8 402C627.7 403 600.3 387 573 369C545.7 351 518.3 331 491 326C463.7 321 436.3 331 409 343C381.7 355 354.3 369 327 367C299.7 365 272.3 347 245.2 344C218 341 191 353 163.8 352C136.7 351 109.3 337 82 351C54.7 365 27.3 407 13.7 428L0 449Z" fill="#5802dc"></path><path d="M0 601L13.7 601C27.3 601 54.7 601 82 601C109.3 601 136.7 601 163.8 601C191 601 218 601 245.2 601C272.3 601 299.7 601 327 601C354.3 601 381.7 601 409 601C436.3 601 463.7 601 491 601C518.3 601 545.7 601 573 601C600.3 601 627.7 601 654.8 601C682 601 709 601 736.2 601C763.3 601 790.7 601 818 601C845.3 601 872.7 601 886.3 601L900 601L900 527L886.3 523C872.7 519 845.3 511 818 513C790.7 515 763.3 527 736.2 530C709 533 682 527 654.8 528C627.7 529 600.3 537 573 542C545.7 547 518.3 549 491 544C463.7 539 436.3 527 409 528C381.7 529 354.3 543 327 540C299.7 537 272.3 517 245.2 508C218 499 191 501 163.8 506C136.7 511 109.3 519 82 529C54.7 539 27.3 551 13.7 557L0 563Z" fill="#4b03ba"></path></svg>